<?xml version="1.0" encoding="utf-8"?>
<!-- Generator: Adobe Illustrator 23.0.3, SVG Export Plug-In . SVG Version: 6.00 Build 0)  -->
<svg version="1.1" id="Layer_1" xmlns="http://www.w3.org/2000/svg" xmlns:xlink="http://www.w3.org/1999/xlink" x="0px" y="0px"
	 viewBox="0 0 83 33" style="enable-background:new 0 0 83 33;" xml:space="preserve">
<style type="text/css">
	.st0{fill-rule:evenodd;clip-rule:evenodd;fill:#E72C30;}
</style>
<g transform="translate(-84 -28)">
	<path class="st0" d="M142.7,47.8c0.2-1,0.3-2,0.5-2.9c0.6-3.2,1.1-6.4,1.7-9.6c0.2-0.9-0.4-1.6-1.4-1.6c-0.6,0-1.2,0-1.9,0
		c-1.3,0-2.1,0.8-2.4,2c-0.7,3.9-1.4,7.9-2.1,11.8c0,0.1-0.2,0.3-0.3,0.3c-1.8,0-3.5,0-5.3-0.2c-1.1-0.1-2.1-0.6-2.7-1.6
		c0,0-0.1-0.1-0.1-0.2c-0.2,0.3-0.5,0.5-0.7,0.7c-0.8,0.8-1.7,1.3-2.9,1.2c-0.8-0.1-1.7,0-2.5-0.1c-1.4-0.3-2.6-1-3.3-2.4
		c-0.1,0.5-0.2,1-0.3,1.4c-0.2,1.2-0.2,1.1-1.4,1.1c-0.9,0-1.7-0.2-2.4-0.6c-0.6-0.3-1-0.8-1.6-1.3c-0.2,0.2-0.4,0.4-0.6,0.7
		c-0.8,0.8-1.7,1.2-2.9,1.2c-1.1,0-2.2,0-3.3-0.4c-1.9-0.7-3-2.4-2.6-4.4c0.4-2.6,0.8-5.3,1.4-7.9c0.6-2.6,2.2-4.4,5-5
		c0.4-0.1,0.8-0.1,1.2-0.1c2.3,0,4.6,0,6.9,0c0.1,0,0.2,0,0.4,0c-0.2,1.3-0.5,2.5-0.7,3.8c-0.5,2.9-1,5.7-1.5,8.6
		c0,0.3,0.1,0.6,0.2,0.8c0.3,0.6,1.4,1,2.1,0.9c0.3-3,0.9-6,1.5-9c0.6-2.6,2.2-4.5,5-5c0.4-0.1,0.8-0.1,1.2-0.1c2.3,0,4.6,0,6.9,0
		c0.1,0,0.2,0,0.4,0c-0.1,0.8-0.3,1.5-0.4,2.3c-0.6,3.4-1.2,6.8-1.9,10.2c-0.1,0.5,0.1,0.9,0.5,1.2c0.2,0.1,0.3,0.2,0.5,0.3
		c0.4,0.1,0.8,0.3,1.1,0.2c0.5-0.1,0.3-0.6,0.4-1c0.7-3.8,1.4-7.7,2.1-11.5c0.1-0.5,0.2-1.1,0.3-1.6c0.1,0,0.3,0,0.4,0
		c2.3,0,4.5,0,6.8,0c0.9,0,1.7,0.2,2.5,0.6c1.4,0.7,2.1,1.7,2.1,3.2c0,1.3-0.3,2.5-0.5,3.7c-0.5,3.1-1.1,6.3-1.7,9.4
		c0,0.2,0,0.4-0.1,0.5c0,0.1-0.2,0.2-0.2,0.2C145,47.8,143.9,47.8,142.7,47.8L142.7,47.8z M114.8,33.7c-0.1,0-0.2,0-0.2,0
		c-1.1,0-2.3,0-3.4,0c-1.1,0-2,0.7-2.2,1.8c-0.4,2.3-0.9,4.7-1.3,7c-0.2,1.2,0.4,1.9,1.7,1.9c0.5,0,1,0,1.5,0c1.4,0,2.2-0.7,2.4-2
		c0.4-2.1,0.8-4.1,1.1-6.2C114.5,35.3,114.7,34.5,114.8,33.7L114.8,33.7z M130,33.7c-0.1,0-0.2,0-0.2,0c-1.2,0-2.3,0-3.4,0
		c-1.2,0-2,0.7-2.2,1.8c-0.4,2.3-0.9,4.7-1.3,7c-0.2,1.1,0.3,1.7,1.4,1.8c0.6,0.1,1.2,0,1.8,0c1.3,0,2.2-0.7,2.4-2l1.1-5.7
		C129.6,35.7,129.8,34.7,130,33.7z M98.6,47.8c-0.3,0-0.6,0-0.8,0c-1.3,0-2.5,0-3.8-0.1c-1.9-0.2-3.2-1.4-3.6-3
		c-0.2-0.9-0.1-1.7,0.1-2.6c0.4-2.3,0.8-4.6,1.3-6.9c0.5-2.8,2.7-4.8,5.6-5c1.7-0.1,3.4-0.1,5.1-0.1c0.9,0,1.8,0,2.8,0
		c-0.1,0.7-0.2,1.4-0.3,2c-0.7,3.7-1.3,7.3-2,11c-0.4,2.3-0.8,4.6-1.3,6.9c-0.6,3.1-3.1,4.6-5.5,4.9C95.6,55,95,55,94.4,55
		c-2.1,0-4.2,0-6.3,0c0,0-0.1,0-0.1,0c0-0.1,0-0.1,0-0.2c0.6-1,1.2-2.1,1.8-3.1c0.1-0.1,0.4-0.2,0.6-0.2c1.8,0,3.7,0,5.5,0
		c1.4,0,2.1-0.6,2.4-1.9C98.4,49,98.5,48.5,98.6,47.8L98.6,47.8z M97.2,44.3L97.2,44.3c0.5,0.1,0.9,0,1.4,0.1c0.5,0,0.6-0.1,0.7-0.6
		c0.5-2.8,1-5.6,1.5-8.4c0.2-1.1-0.4-1.7-1.5-1.8c-0.6,0-1.2,0-1.8,0c-1.2,0-2,0.7-2.3,1.9c-0.2,1.3-0.5,2.6-0.7,3.8
		c-0.2,1.2-0.4,2.3-0.6,3.5c-0.1,0.8,0.4,1.4,1.2,1.5C95.9,44.4,96.6,44.3,97.2,44.3z M162.9,30.1c-0.3,1.8-0.6,3.5-0.9,5.2
		c-0.4,2.4-0.9,4.8-1.3,7.1c-0.2,1,0.2,1.6,1.2,1.9c0.1,0,0.3,0.3,0.2,0.4c-0.2,1-0.4,2-0.5,3.1c-1.6-0.1-3-0.6-4-1.9
		c-0.3,0.3-0.5,0.5-0.7,0.8c-0.8,0.8-1.7,1.2-2.9,1.2c-1-0.1-2,0-3-0.3c-2.2-0.7-3.3-2.4-3-4.7c0.4-2.6,0.8-5.2,1.4-7.8
		c0.6-2.4,2-4.2,4.6-4.8c0.5-0.1,1.1-0.2,1.6-0.2c2.4,0,4.7,0,7.1,0C162.7,30.1,162.8,30.1,162.9,30.1L162.9,30.1z M158.7,33.7
		c-0.2,0-0.3,0-0.4,0c-1.1,0-2.2,0-3.3,0c-1.1,0-2,0.7-2.2,1.8c-0.5,2.4-0.9,4.8-1.3,7.3c-0.2,0.9,0.3,1.5,1.3,1.7
		c0.6,0.1,1.2,0.1,1.9,0.1c1.4,0,2.2-0.7,2.5-2.1c0.4-2.3,0.8-4.5,1.2-6.7C158.5,34.9,158.6,34.3,158.7,33.7z"/>
</g>
</svg>
